<svg width="32" height="32" viewBox="0 0 32 32" fill="none" xmlns="http://www.w3.org/2000/svg">
<path d="M16.0773 26.6667C13.1146 26.6667 10.596 25.6293 8.52131 23.5547C6.44664 21.48 5.40976 18.9618 5.41065 16C5.41065 13.8044 6.03865 11.7889 7.29465 9.95332C8.55153 8.11598 10.3338 6.79465 12.6413 5.98932C12.9133 5.89421 13.1515 5.86932 13.356 5.91465C13.5604 5.95998 13.7298 6.04843 13.864 6.17998C13.9982 6.31154 14.0835 6.48043 14.12 6.68665C14.1555 6.89376 14.1275 7.11109 14.036 7.33865C13.8635 7.76265 13.7382 8.19421 13.66 8.63332C13.5818 9.07243 13.5431 9.52798 13.544 9.99998C13.544 12.376 14.372 14.3924 16.028 16.0493C17.6849 17.7053 19.7013 18.5333 22.0773 18.5333C22.6978 18.5333 23.2653 18.4675 23.78 18.336C24.2955 18.2044 24.7346 18.0978 25.0973 18.016C25.2911 17.9804 25.4684 17.9849 25.6293 18.0293C25.7902 18.0738 25.92 18.152 26.0186 18.264C26.1209 18.3751 26.1902 18.512 26.2266 18.6747C26.2631 18.8373 26.2422 19.0227 26.164 19.2307C25.5284 21.4084 24.2826 23.192 22.4266 24.5813C20.5706 25.9707 18.4542 26.6658 16.0773 26.6667Z" fill="black"/>
</svg>
