<svg width="33" height="24" viewBox="0 0 33 24" fill="none" xmlns="http://www.w3.org/2000/svg">
<g clip-path="url(#clip0_142_11)">
<path fill-rule="evenodd" clip-rule="evenodd" d="M0.5 0V24H32.5V0H0.5Z" fill="#2E42A5"/>
<mask id="mask0_142_11" style="mask-type:luminance" maskUnits="userSpaceOnUse" x="0" y="0" width="33" height="24">
<path fill-rule="evenodd" clip-rule="evenodd" d="M0.5 0V24H32.5V0H0.5Z" fill="white"/>
</mask>
<g mask="url(#mask0_142_11)">
<path d="M-3.06311 22.285L3.97889 25.264L32.6589 3.23802L36.3739 -1.18798L28.8439 -2.18298L17.1459 7.30802L7.72989 13.704L-3.06311 22.285Z" fill="white"/>
<path d="M-2.1001 24.372L1.4889 26.1L35.0399 -1.599H30.0029L-2.1001 24.372Z" fill="#F50100"/>
<path d="M36.063 22.285L29.021 25.264L0.340977 3.23802L-3.37402 -1.18798L4.15598 -2.18298L15.854 7.30802L25.27 13.704L36.063 22.285Z" fill="white"/>
<path d="M35.8229 23.783L32.2349 25.511L17.9489 13.651L13.7129 12.327L-3.73206 -1.17297H1.30594L18.7399 12.007L23.3709 13.595L35.8229 23.783Z" fill="#F50100"/>
<path fill-rule="evenodd" clip-rule="evenodd" d="M20.278 -2H12.722V8H-1.47205V16H12.722V26H20.278V16H34.528V8H20.278V-2Z" fill="#F50100"/>
<mask id="mask1_142_11" style="mask-type:luminance" maskUnits="userSpaceOnUse" x="-2" y="-2" width="37" height="28">
<path fill-rule="evenodd" clip-rule="evenodd" d="M20.278 -2H12.722V8H-1.47205V16H12.722V26H20.278V16H34.528V8H20.278V-2Z" fill="white"/>
</mask>
<g mask="url(#mask1_142_11)">
<path d="M12.722 -2V-4H10.722V-2H12.722ZM20.278 -2H22.278V-4H20.278V-2ZM12.722 8V10H14.722V8H12.722ZM-1.47205 8V6H-3.47205V8H-1.47205ZM-1.47205 16H-3.47205V18H-1.47205V16ZM12.722 16H14.722V14H12.722V16ZM12.722 26H10.722V28H12.722V26ZM20.278 26V28H22.278V26H20.278ZM20.278 16V14H18.278V16H20.278ZM34.528 16V18H36.528V16H34.528ZM34.528 8H36.528V6H34.528V8ZM20.278 8H18.278V10H20.278V8ZM12.722 0H20.278V-4H12.722V0ZM14.722 8V-2H10.722V8H14.722ZM-1.47205 10H12.722V6H-1.47205V10ZM0.527954 16V8H-3.47205V16H0.527954ZM12.722 14H-1.47205V18H12.722V14ZM14.722 26V16H10.722V26H14.722ZM20.278 24H12.722V28H20.278V24ZM18.278 16V26H22.278V16H18.278ZM34.528 14H20.278V18H34.528V14ZM32.528 8V16H36.528V8H32.528ZM20.278 10H34.528V6H20.278V10ZM18.278 -2V8H22.278V-2H18.278Z" fill="white"/>
</g>
</g>
</g>
<defs>
<clipPath id="clip0_142_11">
<rect width="32" height="24" fill="white" transform="translate(0.5)"/>
</clipPath>
</defs>
</svg>
